# xmcd CD database file
#
# Track frame offsets:
#	150
#	7543
#	27566
#	56984
#	70383
#	79090
#	101375
#	134048
#	157604
#	171061
#	187162
#	213090
#	218472
#	241100
#
# Disc length: 3569 seconds
#
# Revision: 0
# Processed by: cddbd v1.5.1PL2 Copyright (c) Steve Scherf et al.
# Submitted via: cdripper 1,0,33,916
#
DISCID=b20def0e
DTITLE=Ben Goldberg - The door, the hat, the chair, the fact
DYEAR=2006
DGENRE=Jazz
TTITLE0=Petals
TTITLE1=Song and dance
TTITLE2=Long last moment$
TTITLE3=F13
TTITLE4=Facts
TTITLE5=Blinks
TTITLE6=I before E before I
TTITLE7=Learned from Susan Stewart
TTITLE8=MF
TTITLE9=Facts
TTITLE10=Dog's life
TTITLE11=Lone
TTITLE12=Cortege
TTITLE13=14
EXTD=YEAR: 2006
EXTT0=
EXTT1=
EXTT2=
EXTT3=
EXTT4=
EXTT5=
EXTT6=
EXTT7=
EXTT8=
EXTT9=
EXTT10=
EXTT11=
EXTT12=
EXTT13=
PLAYORDER=
